<?xml version="1.0" standalone="no"?>
<!DOCTYPE svg PUBLIC "-//W3C//DTD SVG 20010904//EN"
 "http://www.w3.org/TR/2001/REC-SVG-20010904/DTD/svg10.dtd">
<svg version="1.0" xmlns="http://www.w3.org/2000/svg"
 width="193.000000pt" height="193.000000pt" viewBox="0 0 193.000000 193.000000"
 preserveAspectRatio="xMidYMid meet">
<metadata>
Created by potrace 1.11, written by Peter Selinger 2001-2013
</metadata>
<g transform="translate(0.000000,193.000000) scale(0.100000,-0.100000)"
fill="#000000" stroke="none">
<path d="M200 1901 c-19 -10 -48 -35 -65 -55 l-30 -38 -5 -806 -5 -807 -47 -3
-48 -3 0 -95 0 -94 670 0 670 0 0 95 0 95 -45 0 -45 0 0 290 0 290 44 0 44 0
4 -177 c4 -151 7 -185 25 -224 87 -194 336 -235 478 -77 73 81 75 98 75 507
l0 356 -240 240 -240 240 -47 -48 -48 -47 98 -98 97 -97 0 -95 0 -95 95 -95
96 -95 -3 -263 -3 -264 -28 -24 c-39 -33 -96 -33 -130 1 -25 26 -25 28 -29
213 -3 212 -11 240 -81 296 -35 28 -47 31 -123 35 l-84 3 0 402 c0 369 -2 404
-19 441 -22 47 -64 89 -104 104 -18 7 -179 11 -460 11 -402 0 -435 -1 -467
-19z m858 -458 l-3 -288 -382 -3 -383 -2 0 290 0 290 385 0 385 0 -2 -287z"/>
</g>
</svg>
